<svg width="10" height="16" viewBox="0 0 10 16" fill="none" xmlns="http://www.w3.org/2000/svg">
<path d="M0.554581 8.62432L7.67478 15.7444C7.83946 15.9092 8.0593 16 8.2937 16C8.52811 16 8.74794 15.9092 8.91262 15.7444L9.43698 15.2202C9.77818 14.8786 9.77818 14.3234 9.43698 13.9823L3.45797 8.00332L9.44361 2.01768C9.60829 1.85286 9.69922 1.63316 9.69922 1.39888C9.69922 1.16435 9.60829 0.944643 9.44361 0.779701L8.91926 0.255608C8.75445 0.0907964 8.53474 8.51872e-07 8.30034 8.3138e-07C8.06593 8.10888e-07 7.8461 0.0907963 7.68142 0.255607L0.554581 7.38218C0.38951 7.54752 0.298844 7.76826 0.299365 8.00293C0.298844 8.2385 0.38951 8.45912 0.554581 8.62432Z" fill="white"/>
</svg>
