<svg width="18" height="18" viewBox="0 0 18 18" fill="none" xmlns="http://www.w3.org/2000/svg">
<g clip-path="url(#clip0)">
<path d="M17.6997 9.47347C16.7329 6.36282 13.6643 4.24001 9.98614 4.17695V0.540855C9.98614 0.372711 9.83901 0.225586 9.67087 0.225586C9.60782 0.225586 9.54476 0.246604 9.48171 0.28864L0.128735 7.05641C-0.0183907 7.1615 -0.0394086 7.35066 0.065681 7.49778C0.0866989 7.5188 0.107717 7.53982 0.128735 7.56084L9.48171 14.2866C9.62883 14.3917 9.818 14.3496 9.92308 14.2235C9.96512 14.1605 9.98614 14.0974 9.98614 14.0344V10.4193C12.2561 10.4193 14.1687 11.4912 14.8413 13.1096C15.4088 14.4967 14.9464 15.989 13.6012 17.2291C13.4751 17.3552 13.4541 17.5443 13.5802 17.6705C13.6433 17.7335 13.7273 17.7755 13.8114 17.7755H14.0636C14.1267 17.7755 14.1897 17.7545 14.2318 17.7125C17.3214 15.6738 18.6455 12.5 17.6997 9.47347Z" fill="#2B6DC6"/>
</g>
<defs>
<clipPath id="clip0">
<rect width="18" height="18" fill="white"/>
</clipPath>
</defs>
</svg>
