<svg width="15" height="15" viewBox="0 0 15 15" fill="none" xmlns="http://www.w3.org/2000/svg">
<path d="M14.375 8.1123H0.625C0.279999 8.1123 0 7.83231 0 7.4873C0 7.1423 0.279999 6.8623 0.625 6.8623H14.375C14.72 6.8623 15 7.1423 15 7.4873C15 7.83231 14.72 8.1123 14.375 8.1123Z" fill="#1D3783"/>
<path d="M14.375 3.32031H0.625C0.279999 3.32031 0 3.04031 0 2.69531C0 2.35031 0.279999 2.07031 0.625 2.07031H14.375C14.72 2.07031 15 2.35031 15 2.69531C15 3.04031 14.72 3.32031 14.375 3.32031Z" fill="#1D3783"/>
<path d="M14.375 12.9033H0.625C0.279999 12.9033 0 12.6233 0 12.2783C0 11.9333 0.279999 11.6533 0.625 11.6533H14.375C14.72 11.6533 15 11.9333 15 12.2783C15 12.6233 14.72 12.9033 14.375 12.9033Z" fill="#1D3783"/>
</svg>
