<svg width="18" height="18" viewBox="0 0 18 18" fill="none" xmlns="http://www.w3.org/2000/svg">
<path d="M13.2188 4.21875C12.6362 4.21875 12.1641 3.74657 12.1641 3.16406V1.05469C12.1641 0.472184 12.6362 0 13.2188 0C13.8013 0 14.2734 0.472184 14.2734 1.05469V3.16406C14.2734 3.74657 13.8013 4.21875 13.2188 4.21875Z" fill="#1D3783"/>
<path d="M16.0664 2.10938H15.3281V3.16406C15.3281 4.32717 14.3819 5.27344 13.2188 5.27344C12.0556 5.27344 11.1094 4.32717 11.1094 3.16406V2.10938H6.89062V3.16406C6.89062 4.32717 5.94436 5.27344 4.78125 5.27344C3.61814 5.27344 2.67188 4.32717 2.67188 3.16406V2.10938H1.93359C0.86741 2.10938 0 2.97679 0 4.04297V6.39844H18V4.04297C18 2.97679 17.1326 2.10938 16.0664 2.10938Z" fill="#1D3783"/>
<path d="M4.78125 4.21875C4.19875 4.21875 3.72656 3.74657 3.72656 3.16406V1.05469C3.72656 0.472184 4.19875 0 4.78125 0C5.36375 0 5.83594 0.472184 5.83594 1.05469V3.16406C5.83594 3.74657 5.36375 4.21875 4.78125 4.21875Z" fill="#1D3783"/>
<path d="M0 7.45312V16.0664C0 17.1326 0.86741 18 1.93359 18H16.0664C17.1326 18 18 17.1326 18 16.0664V7.45312H0ZM9.5542 14.3086C9.5542 15.4717 8.60794 16.418 7.44483 16.418C6.3983 16.418 5.50023 15.6373 5.35574 14.6021C5.34227 14.5056 5.33545 14.4068 5.33545 14.3086C5.33545 14.0174 5.57156 13.7812 5.8628 13.7812C6.15403 13.7812 6.39014 14.0174 6.39014 14.3086C6.39014 14.3582 6.39359 14.4079 6.40034 14.4564C6.47244 14.9734 6.92149 15.3633 7.44483 15.3633C8.02638 15.3633 8.49952 14.8901 8.49952 14.3086C8.49952 13.727 8.02638 13.2539 7.44483 13.2539C7.15359 13.2539 6.91748 13.0178 6.91748 12.7266C6.91748 12.4353 7.15359 12.1992 7.44483 12.1992C8.02638 12.1992 8.49952 11.7261 8.49952 11.1445C8.49952 10.563 8.02638 10.0898 7.44483 10.0898C6.94188 10.0898 6.50665 10.4472 6.40993 10.9395C6.35375 11.2253 6.07634 11.4114 5.79087 11.3554C5.50508 11.2992 5.31889 11.022 5.37504 10.7363C5.56861 9.75059 6.43908 9.03516 7.44483 9.03516C8.60794 9.03516 9.5542 9.98142 9.5542 11.1445C9.5542 11.7741 9.27661 12.3397 8.83782 12.7266C9.27661 13.1134 9.5542 13.679 9.5542 14.3086ZM12.6645 15.8906C12.6645 16.1819 12.4284 16.418 12.1372 16.418C11.846 16.418 11.6099 16.1819 11.6099 15.8906V10.0898H10.7846C10.4934 10.0898 10.2573 9.85373 10.2573 9.5625C10.2573 9.27127 10.4934 9.03516 10.7846 9.03516H12.1372C12.4284 9.03516 12.6645 9.27127 12.6645 9.5625V15.8906Z" fill="#1D3783"/>
</svg>
