<svg width="20" height="20" viewBox="0 0 20 20" fill="none" xmlns="http://www.w3.org/2000/svg">
<path d="M4.6875 9.21875C4.28575 9.21875 3.89303 9.33788 3.559 9.56108C3.22496 9.78428 2.96461 10.1015 2.81087 10.4727C2.65713 10.8438 2.6169 11.2523 2.69528 11.6463C2.77366 12.0403 2.96711 12.4022 3.25119 12.6863C3.53526 12.9704 3.8972 13.1639 4.29122 13.2422C4.68524 13.3206 5.09366 13.2804 5.46482 13.1266C5.83598 12.9729 6.15322 12.7126 6.37642 12.3785C6.59961 12.0445 6.71874 11.6518 6.71874 11.25C6.71813 10.7115 6.50393 10.1952 6.12313 9.81437C5.74233 9.43356 5.22603 9.21936 4.6875 9.21875ZM4.6875 12.1875C4.50208 12.1875 4.32082 12.1325 4.16665 12.0295C4.01248 11.9265 3.89232 11.7801 3.82136 11.6088C3.7504 11.4375 3.73184 11.249 3.76801 11.0671C3.80419 10.8853 3.89347 10.7182 4.02459 10.5871C4.1557 10.456 4.32274 10.3667 4.5046 10.3305C4.68646 10.2943 4.87496 10.3129 5.04626 10.3839C5.21757 10.4548 5.36398 10.575 5.467 10.7292C5.57001 10.8833 5.625 11.0646 5.625 11.25C5.625 11.4986 5.52622 11.7371 5.35041 11.9129C5.17459 12.0887 4.93614 12.1875 4.6875 12.1875Z" fill="#2B51BE"/>
<path d="M15.9375 9.21875C15.5358 9.21875 15.143 9.33788 14.809 9.56108C14.475 9.78428 14.2146 10.1015 14.0609 10.4727C13.9071 10.8438 13.8669 11.2523 13.9453 11.6463C14.0237 12.0403 14.2171 12.4022 14.5012 12.6863C14.7853 12.9704 15.1472 13.1639 15.5412 13.2422C15.9353 13.3206 16.3437 13.2804 16.7148 13.1266C17.086 12.9729 17.4032 12.7126 17.6264 12.3785C17.8496 12.0445 17.9688 11.6518 17.9688 11.25C17.9682 10.7115 17.754 10.1952 17.3732 9.81437C16.9923 9.43356 16.476 9.21936 15.9375 9.21875ZM15.9375 12.1875C15.7521 12.1875 15.5708 12.1325 15.4167 12.0295C15.2625 11.9265 15.1423 11.7801 15.0714 11.6088C15.0004 11.4375 14.9818 11.249 15.018 11.0671C15.0542 10.8853 15.1435 10.7182 15.2746 10.5871C15.4057 10.456 15.5728 10.3667 15.7546 10.3305C15.9365 10.2943 16.125 10.3129 16.2963 10.3839C16.4676 10.4548 16.614 10.575 16.717 10.7292C16.82 10.8833 16.875 11.0646 16.875 11.25C16.875 11.4986 16.7762 11.7371 16.6004 11.9129C16.4246 12.0887 16.1861 12.1875 15.9375 12.1875Z" fill="#2B51BE"/>
<path d="M18.6484 7.54063L15 6.875L11.8939 4.29786C11.5861 4.04499 11.2002 3.90661 10.8018 3.90625H6.22578C5.96791 3.90564 5.71324 3.96335 5.48082 4.07506C5.2484 4.18677 5.04425 4.34959 4.88363 4.55133L2.89969 6.875H1.5625C1.18967 6.87542 0.832221 7.02371 0.568588 7.28734C0.304954 7.55098 0.156664 7.90842 0.15625 8.28125V10C0.156757 10.4557 0.338001 10.8926 0.66022 11.2148C0.982438 11.537 1.41931 11.7182 1.875 11.7188H2.23223C2.16289 11.3571 2.17429 10.9847 2.2656 10.628C2.35692 10.2713 2.5259 9.93915 2.76046 9.65533C2.99503 9.37151 3.28939 9.14301 3.62252 8.98616C3.95564 8.82931 4.3193 8.74798 4.6875 8.74798C5.0557 8.74798 5.41936 8.82931 5.75248 8.98616C6.08561 9.14301 6.37997 9.37151 6.61454 9.65533C6.8491 9.93915 7.01808 10.2713 7.1094 10.628C7.20071 10.9847 7.21211 11.3571 7.14277 11.7188H13.4822C13.4129 11.3571 13.4243 10.9847 13.5156 10.628C13.6069 10.2713 13.7759 9.93915 14.0105 9.65533C14.245 9.37151 14.5394 9.14301 14.8725 8.98616C15.2056 8.82931 15.5693 8.74798 15.9375 8.74798C16.3057 8.74798 16.6694 8.82931 17.0025 8.98616C17.3356 9.14301 17.63 9.37151 17.8645 9.65533C18.0991 9.93915 18.2681 10.2713 18.3594 10.628C18.4507 10.9847 18.4621 11.3571 18.3928 11.7188H18.4375C18.8103 11.7183 19.1678 11.5701 19.4314 11.3064C19.695 11.0428 19.8433 10.6853 19.8438 10.3125V8.93094C19.8454 8.59408 19.7254 8.26793 19.5058 8.01248C19.2862 7.75704 18.9817 7.58948 18.6484 7.54063ZM7.03125 6.40625C7.03125 6.53058 6.98186 6.6498 6.89396 6.73771C6.80605 6.82562 6.68682 6.875 6.5625 6.875H4.50176C4.45694 6.87503 4.41306 6.86221 4.37531 6.83806C4.33756 6.8139 4.30753 6.77944 4.28877 6.73874C4.27001 6.69804 4.26332 6.65281 4.26947 6.60842C4.27563 6.56404 4.29439 6.52234 4.32352 6.48829L5.68742 4.89063C5.73146 4.83915 5.78613 4.79782 5.84767 4.7695C5.90921 4.74118 5.97616 4.72653 6.04391 4.72657H6.5625C6.68682 4.72657 6.80605 4.77595 6.89396 4.86386C6.98186 4.95177 7.03125 5.071 7.03125 5.19532V6.40625ZM9.375 8.59375H8.75C8.62568 8.59375 8.50645 8.54437 8.41854 8.45646C8.33064 8.36855 8.28125 8.24932 8.28125 8.125C8.28125 8.00068 8.33064 7.88146 8.41854 7.79355C8.50645 7.70564 8.62568 7.65625 8.75 7.65625H9.375C9.49932 7.65625 9.61855 7.70564 9.70646 7.79355C9.79436 7.88146 9.84375 8.00068 9.84375 8.125C9.84375 8.24932 9.79436 8.36855 9.70646 8.45646C9.61855 8.54437 9.49932 8.59375 9.375 8.59375ZM13.0656 6.88649L8.59266 6.8761C8.46853 6.87581 8.34958 6.8263 8.26191 6.73842C8.17424 6.65054 8.125 6.53148 8.125 6.40735V5.19532C8.125 5.071 8.17439 4.95177 8.26229 4.86386C8.3502 4.77595 8.46943 4.72657 8.59375 4.72657H10.8417C10.9471 4.72658 11.0494 4.76208 11.1321 4.82735L13.2113 6.46797C13.2496 6.49815 13.2776 6.53954 13.2913 6.58636C13.3049 6.63318 13.3037 6.68311 13.2876 6.72917C13.2716 6.77524 13.2416 6.81516 13.2018 6.84336C13.162 6.87156 13.1144 6.88664 13.0656 6.88649Z" fill="#2B51BE"/>
</svg>
