<svg width="20" height="20" viewBox="0 0 20 20" fill="none" xmlns="http://www.w3.org/2000/svg">
<g clip-path="url(#clip0)">
<path d="M10.0083 2.9831C10.8746 2.9831 11.6229 2.43074 11.8917 1.61816C11.3789 1.75933 10.7252 1.84454 10.0083 1.84454C9.29146 1.84454 8.63778 1.75933 8.125 1.61816C8.39367 2.43067 9.1419 2.9831 10.0083 2.9831Z" fill="#2B51BE"/>
<path d="M19.9751 3.9821C19.934 3.86665 19.8484 3.7717 19.7368 3.71999L15.9238 1.95974C15.1127 1.68498 14.2864 1.46794 13.452 1.30931C13.4226 1.30356 13.3934 1.30078 13.3645 1.30078C13.158 1.30078 12.973 1.44337 12.927 1.65249C12.6223 2.99383 11.435 3.99807 9.99996 3.99807C8.56503 3.99807 7.37759 2.9939 7.07298 1.65249C7.02642 1.44337 6.8418 1.30078 6.63539 1.30078C6.60656 1.30078 6.57732 1.30356 6.54795 1.30931C5.71364 1.46794 4.88732 1.68498 4.07493 1.95974L0.263222 3.71993C0.151015 3.77163 0.0647961 3.86658 0.0256118 3.98203C-0.0149261 4.09884 -0.00761713 4.22492 0.0495014 4.3351L1.70485 7.60195C1.78234 7.757 1.93996 7.85005 2.10671 7.85005C2.14976 7.85005 2.19341 7.84383 2.23645 7.8309L4.075 7.28597V18.2474C4.075 18.4964 4.2781 18.6994 4.52769 18.6994H15.4724C15.7214 18.6994 15.9238 18.4963 15.9238 18.2474V7.28611L17.7637 7.83103C17.8067 7.84396 17.8503 7.85019 17.8933 7.85019C18.0597 7.85019 18.2167 7.75713 18.2953 7.60209L19.9512 4.33523C20.007 4.22499 20.015 4.09891 19.9751 3.9821Z" fill="#2B51BE"/>
</g>
<defs>
<clipPath id="clip0">
<rect width="20" height="20" fill="white"/>
</clipPath>
</defs>
</svg>
