<svg width="15" height="15" viewBox="0 0 15 15" fill="none" xmlns="http://www.w3.org/2000/svg">
<path d="M7.50047 0C3.88215 0 0.949341 2.93281 0.949341 6.55113C0.949341 9.02641 2.32141 11.1778 4.34545 12.2925L4.26841 15L7.35949 13.0949C7.40614 13.096 7.45278 13.1023 7.50047 13.1023C11.1188 13.1023 14.0516 10.1695 14.0516 6.55113C14.0516 2.93281 11.1188 0 7.50047 0ZM8.33483 10.3686H6.65616V4.96524H8.33483V10.3686ZM7.48423 4.30331C6.95332 4.30331 6.60009 3.92701 6.61162 3.46267C6.60061 2.97684 6.95332 2.61154 7.49523 2.61154C8.03662 2.61154 8.38042 2.97684 8.39143 3.46267C8.3909 3.92701 8.03557 4.30331 7.48423 4.30331Z" fill="#1D3783"/>
</svg>
