<svg width="20" height="20" viewBox="0 0 20 20" fill="none" xmlns="http://www.w3.org/2000/svg">
<g clip-path="url(#clip0)">
<path d="M17.9584 7.55957C17.624 7.55957 17.353 7.83066 17.353 8.16504V12.284C17.353 12.6184 17.0819 12.8895 16.7475 12.8895H3.25254C2.91812 12.8895 2.64707 12.6184 2.64707 12.284V8.16508C2.64707 7.83066 2.37598 7.55961 2.0416 7.55961H0.7375C0.330195 7.55961 0 7.8898 0 8.29711V14.5394C0 14.8738 0.271094 15.1449 0.605469 15.1449H2.57812V15.8497C2.57812 16.1663 2.82133 16.4395 3.13754 16.4535C3.4732 16.4682 3.75 16.2005 3.75 15.8681V15.1449H16.25V15.8497C16.25 16.1663 16.4932 16.4395 16.8094 16.4535C17.1451 16.4683 17.4219 16.2005 17.4219 15.8681V15.1449H19.3945C19.7289 15.1449 20 14.8738 20 14.5395V8.29707C20 7.88977 19.6698 7.55957 19.2625 7.55957H17.9584Z" fill="#2B51BE"/>
<path d="M3.81957 8.29734V9.37949H9.41496V4.05535C9.08078 3.73957 8.63105 3.54492 8.13781 3.54492H4.20098C3.17629 3.54492 2.33789 4.38332 2.33789 5.40801V6.4368C3.18539 6.63168 3.81957 7.3916 3.81957 8.29734Z" fill="#2B51BE"/>
<path d="M9.41566 10.5518H3.82031V10.8417V11.7182H9.41773C9.4168 11.7047 9.41566 11.6913 9.41566 11.6776V10.8417V10.5518Z" fill="#2B51BE"/>
<path d="M16.1808 8.29738C16.1808 7.39141 16.8152 6.63137 17.663 6.43672V5.40801C17.663 4.38332 16.8246 3.54492 15.7999 3.54492H11.8631C11.3698 3.54492 10.9201 3.73953 10.5859 4.05535V9.37949H16.1808V8.29738Z" fill="#2B51BE"/>
<path d="M16.1809 10.8417V10.5518H10.586V10.8417V11.6776C10.586 11.6913 10.5849 11.7047 10.584 11.7182H16.1809V10.8417H16.1809Z" fill="#2B51BE"/>
</g>
<defs>
<clipPath id="clip0">
<rect width="20" height="20" fill="white"/>
</clipPath>
</defs>
</svg>
