<svg width="14" height="10" viewBox="0 0 14 10" fill="none" xmlns="http://www.w3.org/2000/svg">
<path d="M6.99991 3.09082C5.94672 3.09082 5.09082 3.94672 5.09082 4.99991C5.09082 6.05311 5.94672 6.90901 6.99991 6.90901C8.0531 6.90901 8.909 6.05311 8.909 4.99991C8.909 3.94672 8.05307 3.09082 6.99991 3.09082Z" fill="#6C6C6C"/>
<path d="M7.00002 0.227539C3.81818 0.227539 1.10092 2.20661 0 5.00027C1.10092 7.7939 3.81818 9.773 7.00002 9.773C10.185 9.773 12.8991 7.7939 14 5.00027C12.8991 2.20661 10.185 0.227539 7.00002 0.227539ZM7.00002 8.18207C5.24365 8.18207 3.81818 6.75661 3.81818 5.00024C3.81818 3.24388 5.24365 1.81844 7.00002 1.81844C8.75638 1.81844 10.1818 3.24391 10.1818 5.00027C10.1818 6.75664 8.75638 8.18207 7.00002 8.18207Z" fill="#6C6C6C"/>
</svg>
