<svg width="17" height="17" viewBox="0 0 17 17" fill="none" xmlns="http://www.w3.org/2000/svg">
<path d="M15.4566 0.010625C15.4389 0.00920833 15.424 0 15.4056 0H7.79102C6.61943 0 5.66602 0.953417 5.66602 2.125V2.83333C5.66602 3.22433 5.98335 3.54167 6.37435 3.54167C6.76535 3.54167 7.08268 3.22433 7.08268 2.83333V2.125C7.08268 1.73471 7.40072 1.41667 7.79102 1.41667H11.0911L10.8751 1.48892C10.3013 1.68725 9.91602 2.22771 9.91602 2.83333V13.4583H7.79102C7.40072 13.4583 7.08268 13.1403 7.08268 12.75V11.3333C7.08268 10.9423 6.76535 10.625 6.37435 10.625C5.98335 10.625 5.66602 10.9423 5.66602 11.3333V12.75C5.66602 13.9216 6.61943 14.875 7.79102 14.875H9.91602V15.5833C9.91602 16.3646 10.5514 17 11.3327 17C11.4843 17 11.6281 16.978 11.7839 16.9299L16.0396 15.5111C16.614 15.3127 16.9993 14.7723 16.9993 14.1667V1.41667C16.9993 0.59075 16.2875 -0.0566667 15.4566 0.010625Z" fill="#1D3784"/>
<path d="M7.58412 6.583L4.75079 3.74967C4.54821 3.54708 4.24363 3.48617 3.97871 3.59596C3.7145 3.70575 3.54167 3.96429 3.54167 4.25046V6.37546H0.708333C0.317333 6.37546 0 6.69279 0 7.08379C0 7.47479 0.317333 7.79213 0.708333 7.79213H3.54167V9.91713C3.54167 10.2033 3.7145 10.4618 3.97871 10.5716C4.24363 10.6814 4.54821 10.6205 4.75079 10.4179L7.58412 7.58458C7.86108 7.30763 7.86108 6.85996 7.58412 6.583Z" fill="#1D3784"/>
</svg>
