<svg width="13" height="13" viewBox="0 0 13 13" fill="none" xmlns="http://www.w3.org/2000/svg">
<g clip-path="url(#clip0)">
<path d="M12.8886 6.21036L8.98885 1.87726C8.90566 1.7854 8.78953 1.7334 8.66647 1.7334H6.06661C5.89589 1.7334 5.74076 1.83393 5.67056 1.98992C5.60123 2.14678 5.62983 2.32963 5.74423 2.45616L9.38316 6.49981L5.74423 10.5426C5.62983 10.67 5.60037 10.8528 5.67056 11.0088C5.74076 11.1657 5.89589 11.2662 6.06661 11.2662H8.66647C8.78953 11.2662 8.90566 11.2134 8.98885 11.1232L12.8886 6.79012C13.0368 6.62547 13.0368 6.37415 12.8886 6.21036Z" fill="white"/>
<path d="M7.25583 6.21036L3.35604 1.87726C3.27284 1.7854 3.15672 1.7334 3.03366 1.7334H0.433797C0.263073 1.7334 0.107948 1.83393 0.0377519 1.98992C-0.0315777 2.14678 -0.0029792 2.32963 0.111415 2.45616L3.75035 6.49981L0.111415 10.5426C-0.0029792 10.67 -0.0324443 10.8528 0.0377519 11.0088C0.107948 11.1657 0.263073 11.2662 0.433797 11.2662H3.03366C3.15672 11.2662 3.27284 11.2134 3.35604 11.1232L7.25583 6.79012C7.40402 6.62547 7.40402 6.37415 7.25583 6.21036Z" fill="white"/>
</g>
<defs>
<clipPath id="clip0">
<rect width="13" height="13" fill="white"/>
</clipPath>
</defs>
</svg>
