<svg width="25" height="25" viewBox="0 0 25 25" fill="none" xmlns="http://www.w3.org/2000/svg">
<path d="M21.3904 13.3457H19.457C19.6541 13.8853 19.7618 14.4675 19.7618 15.0744V22.3816C19.7618 22.6346 19.7177 22.8775 19.6376 23.1033H22.8339C24.0279 23.1033 24.9993 22.1319 24.9993 20.938V16.9545C24.9993 14.9647 23.3804 13.3457 21.3904 13.3457Z" fill="#1D3783"/>
<path d="M5.23756 15.0744C5.23756 14.4675 5.34523 13.8853 5.5423 13.3457H3.60889C1.61895 13.3457 0 14.9647 0 16.9546V20.9381C0 22.132 0.97134 23.1034 2.16534 23.1034H5.36173C5.2816 22.8774 5.23756 22.6346 5.23756 22.3816V15.0744Z" fill="#1D3783"/>
<path d="M14.7106 11.4658H10.2905C8.30059 11.4658 6.68164 13.0848 6.68164 15.0747V22.3819C6.68164 22.7804 7.00479 23.1036 7.40342 23.1036H17.5977C17.9963 23.1036 18.3194 22.7805 18.3194 22.3819V15.0747C18.3194 13.0848 16.7005 11.4658 14.7106 11.4658Z" fill="#1D3783"/>
<path d="M12.5003 1.89648C10.1071 1.89648 8.16016 3.84346 8.16016 6.23668C8.16016 7.85997 9.0561 9.2777 10.3792 10.022C11.0068 10.3751 11.7304 10.5768 12.5003 10.5768C13.2702 10.5768 13.9938 10.3751 14.6213 10.022C15.9445 9.2777 16.8404 7.85992 16.8404 6.23668C16.8404 3.84351 14.8935 1.89648 12.5003 1.89648Z" fill="#1D3783"/>
<path d="M4.87867 5.94141C3.08887 5.94141 1.63281 7.39746 1.63281 9.18726C1.63281 10.9771 3.08887 12.4331 4.87867 12.4331C5.33267 12.4331 5.765 12.3391 6.15772 12.17C6.83673 11.8777 7.39659 11.3602 7.74303 10.712C7.98619 10.2571 8.12452 9.73809 8.12452 9.18726C8.12452 7.39751 6.66847 5.94141 4.87867 5.94141Z" fill="#1D3783"/>
<path d="M20.1209 5.94141C18.3311 5.94141 16.875 7.39746 16.875 9.18726C16.875 9.73814 17.0133 10.2571 17.2565 10.712C17.6029 11.3603 18.1628 11.8777 18.8418 12.17C19.2345 12.3391 19.6669 12.4331 20.1209 12.4331C21.9107 12.4331 23.3667 10.9771 23.3667 9.18726C23.3667 7.39746 21.9107 5.94141 20.1209 5.94141Z" fill="#1D3783"/>
</svg>
