<svg width="20" height="20" viewBox="0 0 20 20" fill="none" xmlns="http://www.w3.org/2000/svg">
<path d="M14.1695 0.929688C13.237 0.929688 12.3457 1.14346 11.5205 1.56511C10.9588 1.85208 10.4428 2.23336 10 2.68573C9.5572 2.23336 9.0412 1.85208 8.47946 1.56511C7.65423 1.14346 6.76297 0.929688 5.83043 0.929688C2.61555 0.929688 0 3.54523 0 6.76016C0 9.03723 1.2026 11.4557 3.57435 13.9484C5.55464 16.0296 7.97913 17.7646 9.66429 18.8535L10 19.0705L10.3357 18.8535C12.0209 17.7646 14.4454 16.0296 16.4256 13.9484C18.7974 11.4557 20 9.03723 20 6.76016C20 3.54523 17.3845 0.929688 14.1695 0.929688Z" fill="#1D3783"/>
</svg>
