<svg width="7" height="11" viewBox="0 0 7 11" fill="none" xmlns="http://www.w3.org/2000/svg">
<path d="M6.55598 5.07078L1.66084 0.17573C1.54763 0.0624223 1.39649 0 1.23534 0C1.07418 0 0.923046 0.0624223 0.809827 0.17573L0.449334 0.536134C0.214759 0.770977 0.214759 1.15267 0.449334 1.38715L4.5599 5.49772L0.444773 9.61285C0.331555 9.72616 0.269043 9.8772 0.269043 10.0383C0.269043 10.1995 0.331555 10.3506 0.444773 10.464L0.805266 10.8243C0.918574 10.9376 1.06962 11 1.23078 11C1.39193 11 1.54307 10.9376 1.65628 10.8243L6.55598 5.92475C6.66947 5.81108 6.7318 5.65932 6.73145 5.49799C6.7318 5.33603 6.66947 5.18436 6.55598 5.07078Z" fill="#1D3783"/>
</svg>
