<svg width="17" height="17" viewBox="0 0 17 17" fill="none" xmlns="http://www.w3.org/2000/svg">
<path d="M12.3982 0H4.60174C2.0643 0 0 2.0643 0 4.60174V12.3984C0 14.9357 2.0643 17 4.60174 17H12.3984C14.9357 17 17 14.9357 17 12.3984V4.60174C17 2.0643 14.9357 0 12.3982 0V0ZM8.49998 13.1483C5.93686 13.1483 3.85168 11.0631 3.85168 8.49998C3.85168 5.93686 5.93686 3.85168 8.49998 3.85168C11.0631 3.85168 13.1483 5.93686 13.1483 8.49998C13.1483 11.0631 11.0631 13.1483 8.49998 13.1483ZM13.2594 4.9479C12.502 4.9479 11.8859 4.33183 11.8859 3.57439C11.8859 2.81694 12.502 2.20074 13.2594 2.20074C14.0169 2.20074 14.6331 2.81694 14.6331 3.57439C14.6331 4.33183 14.0169 4.9479 13.2594 4.9479Z" fill="white"/>
<path d="M8.49935 4.84863C6.48589 4.84863 4.84766 6.48674 4.84766 8.50032C4.84766 10.5138 6.48589 12.152 8.49935 12.152C10.5129 12.152 12.151 10.5138 12.151 8.50032C12.151 6.48674 10.5129 4.84863 8.49935 4.84863Z" fill="white"/>
<path d="M13.2597 3.19727C13.0519 3.19727 12.8828 3.36639 12.8828 3.57417C12.8828 3.78195 13.0519 3.95108 13.2597 3.95108C13.4676 3.95108 13.6368 3.78208 13.6368 3.57417C13.6368 3.36626 13.4676 3.19727 13.2597 3.19727Z" fill="white"/>
</svg>
