<svg width="17" height="17" viewBox="0 0 17 17" fill="none" xmlns="http://www.w3.org/2000/svg">
<g clip-path="url(#clip0)">
<path d="M13.533 2.91117C12.5013 1.13068 10.6687 0.042915 8.63089 0.00134473C8.54389 -0.000448242 8.45634 -0.000448242 8.36931 0.00134473C6.3315 0.042915 4.49896 1.13068 3.4672 2.91117C2.41261 4.7311 2.38375 6.91719 3.39001 8.759L7.60557 16.475C7.60747 16.4784 7.60936 16.4818 7.61132 16.4852C7.79679 16.8076 8.12905 17 8.50017 17C8.87124 17 9.20351 16.8075 9.38895 16.4852C9.3909 16.4818 9.3928 16.4784 9.39469 16.475L13.6103 8.759C14.6164 6.91719 14.5876 4.7311 13.533 2.91117ZM8.5001 7.70314C7.1819 7.70314 6.10947 6.63071 6.10947 5.31252C6.10947 3.99432 7.1819 2.92189 8.5001 2.92189C9.8183 2.92189 10.8907 3.99432 10.8907 5.31252C10.8907 6.63071 9.81833 7.70314 8.5001 7.70314Z" fill="#1D3783"/>
</g>
<defs>
<clipPath id="clip0">
<rect width="17" height="17" fill="white"/>
</clipPath>
</defs>
</svg>
