<svg width="17" height="17" viewBox="0 0 17 17" fill="none" xmlns="http://www.w3.org/2000/svg">
<g clip-path="url(#clip0)">
<path d="M3.31445 3.45801H6.77208C6.77208 4.09454 6.25607 4.61055 5.61954 4.61055H4.467C3.83046 4.61055 3.31445 4.09454 3.31445 3.45801Z" fill="#1D3784"/>
<path d="M6.77148 3.45801H10.2291C10.2291 4.09454 9.7131 4.61055 9.07657 4.61055H7.92403C7.2875 4.61055 6.77148 4.09454 6.77148 3.45801Z" fill="#1D3784"/>
<path d="M10.2285 3.45801H13.6861C13.6861 4.09454 13.1701 4.61055 12.5336 4.61055H11.3811C10.7445 4.61055 10.2285 4.09454 10.2285 3.45801Z" fill="#1D3784"/>
<path d="M16.8564 3.45763C16.8559 3.76324 16.7347 4.05628 16.5193 4.27305C16.3728 4.41736 16.1909 4.52069 15.992 4.57271C15.8981 4.59844 15.8012 4.61105 15.7039 4.61017H14.8394C14.2029 4.61017 13.6869 4.09416 13.6869 3.45763H15.7039C15.863 3.45763 15.992 3.32862 15.992 3.16949C15.992 3.01036 15.863 2.88136 15.7039 2.88136H13.8828L13.3786 1.6222C13.3405 1.52647 13.2542 1.45833 13.1523 1.44344C13.0503 1.42856 12.9482 1.4692 12.8843 1.55005C12.8205 1.63091 12.8046 1.73969 12.8427 1.83542L13.2605 2.88136H10.5174V2.30509C10.5174 2.14595 10.3884 2.01695 10.2293 2.01695C10.0701 2.01695 9.94114 2.14595 9.94114 2.30509V2.88136H7.05979V2.30509C7.05979 2.14595 6.93078 2.01695 6.77165 2.01695C6.61252 2.01695 6.48351 2.14595 6.48351 2.30509V2.88136H3.74046L4.15826 1.83542C4.21714 1.68743 4.1449 1.51973 3.9969 1.46085C3.84891 1.40197 3.68121 1.47421 3.62233 1.6222L3.11809 2.88136H1.29707C1.13794 2.88136 1.00894 3.01036 1.00894 3.16949C1.00894 3.32862 1.13794 3.45763 1.29707 3.45763H3.31402C3.31402 4.09416 2.79801 4.61017 2.16148 4.61017H1.29707C1.19976 4.61105 1.10279 4.59844 1.00894 4.57271C0.809981 4.52069 0.628162 4.41736 0.48165 4.27305C0.266228 4.05628 0.145077 3.76324 0.144531 3.45763C0.145032 3.26972 0.198998 3.08583 0.300124 2.92746L1.73792 0.668475C2.00061 0.252087 2.45864 -0.000318796 2.95097 3.022e-07H14.05C14.5423 -0.000318796 15.0003 0.252087 15.263 0.668475L16.7008 2.92746C16.8019 3.08583 16.8559 3.26972 16.8564 3.45763Z" fill="#1D3784"/>
<path d="M16.2801 10.9492H0.720802C0.402537 10.9492 0.144531 11.2072 0.144531 11.5255C0.144531 11.8438 0.402537 12.1018 0.720802 12.1018H16.2801C16.5984 12.1018 16.8564 11.8438 16.8564 11.5255C16.8564 11.2072 16.5984 10.9492 16.2801 10.9492Z" fill="#1D3784"/>
<path d="M16.136 12.6777H0.864771C0.785204 12.6777 0.720703 12.7422 0.720703 12.8218V15.1269C0.720703 15.2065 0.785204 15.271 0.864771 15.271H16.136C16.2155 15.271 16.28 15.2065 16.28 15.1269V12.8218C16.28 12.7422 16.2155 12.6777 16.136 12.6777Z" fill="#1D3784"/>
<path d="M2.1623 5.18614V10.2285C2.1623 10.3081 2.0978 10.3726 2.01824 10.3726H1.15383C1.07427 10.3726 1.00977 10.3081 1.00977 10.2285V5.16309C1.10506 5.17826 1.2014 5.18597 1.2979 5.18614H2.1623Z" fill="#1D3784"/>
<path d="M15.9924 5.16309V10.2285C15.9924 10.3081 15.9279 10.3726 15.8483 10.3726H14.9839C14.9043 10.3726 14.8398 10.3081 14.8398 10.2285V5.18614H15.7043C15.8008 5.1862 15.8971 5.1785 15.9924 5.16309Z" fill="#1D3784"/>
<path d="M3.60259 8.64453H8.78903C8.94816 8.64453 9.07716 8.77353 9.07716 8.93266V10.2293C9.07716 10.3088 9.01266 10.3733 8.9331 10.3733H3.45852C3.37895 10.3733 3.31445 10.3088 3.31445 10.2293V8.93266C3.31445 8.77353 3.44346 8.64453 3.60259 8.64453Z" fill="#1D3784"/>
<path d="M5.90767 5.7627H3.60259C3.44346 5.7627 3.31445 5.8917 3.31445 6.05083V6.6271C3.31445 6.78623 3.44346 6.91523 3.60259 6.91523H5.90767C6.06681 6.91523 6.19581 6.78623 6.19581 6.6271V6.05083C6.19581 5.8917 6.06681 5.7627 5.90767 5.7627Z" fill="#1D3784"/>
<path d="M5.18621 7.20312H4.3218C4.24224 7.20312 4.17773 7.26763 4.17773 7.34719V8.2116C4.17773 8.29116 4.24224 8.35566 4.3218 8.35566H5.18621C5.26577 8.35566 5.33027 8.29116 5.33027 8.2116V7.34719C5.33027 7.26763 5.26577 7.20312 5.18621 7.20312Z" fill="#1D3784"/>
<path d="M11.6699 8.06738L11.9422 10.2463C11.9513 10.3188 12.0132 10.373 12.0863 10.3725H12.9847C13.0578 10.373 13.1197 10.3188 13.1287 10.2463L13.3987 8.06738H11.6699Z" fill="#1D3784"/>
<path d="M16.2801 15.8477H0.720802C0.402537 15.8477 0.144531 16.1057 0.144531 16.4239C0.144531 16.7422 0.402537 17.0002 0.720802 17.0002H16.2801C16.5984 17.0002 16.8564 16.7422 16.8564 16.4239C16.8564 16.1057 16.5984 15.8477 16.2801 15.8477Z" fill="#1D3784"/>
</g>
<defs>
<clipPath id="clip0">
<rect width="17" height="17" fill="white"/>
</clipPath>
</defs>
</svg>
