<svg width="20" height="20" viewBox="0 0 20 20" fill="none" xmlns="http://www.w3.org/2000/svg">
<path d="M3.51272 6.09304H16.4873V12.6328H3.51272V6.09304ZM20 14.2333C20 15.222 19.1985 16.0235 18.2097 16.0235H1.79026C0.801527 16.0235 0 15.222 0 14.2333C0 13.9626 0.219375 13.7433 0.490004 13.7433H1.42239V4.46754C1.42239 4.19691 1.64177 3.97754 1.9124 3.97754H18.0875C18.3581 3.97754 18.5775 4.19691 18.5775 4.46754V13.7433H19.5099C19.7805 13.7433 20 13.9626 20 14.2333ZM2.53272 13.1229C2.53272 13.3936 2.75209 13.6129 3.02272 13.6129H16.9773C17.2479 13.6129 17.4673 13.3936 17.4673 13.1229V5.60304C17.4673 5.33241 17.2479 5.11304 16.9773 5.11304H3.02272C2.75209 5.11304 2.53272 5.33241 2.53272 5.60304V13.1229Z" fill="#2B51BE"/>
</svg>
