<svg width="20" height="20" viewBox="0 0 20 20" fill="none" xmlns="http://www.w3.org/2000/svg">
<path d="M18.1383 2.2313H16.4321V0.525003C16.4321 0.23507 16.1967 0 15.907 0H1.86289C1.57309 0 1.33789 0.23507 1.33789 0.525003V4.98764C1.33789 5.27731 1.57309 5.51264 1.86289 5.51264H15.907C16.1967 5.51264 16.432 5.27731 16.432 4.98764V3.2813H17.6133V8.6627H8.88488C8.59508 8.6627 8.35988 8.89777 8.35988 9.18771V10.7627H7.37549C7.15812 10.7627 6.98173 10.9388 6.98173 11.1565V19.6061C6.98173 19.8238 7.15808 19.9999 7.37549 19.9999H10.3943C10.6117 19.9999 10.7881 19.8238 10.7881 19.6061V11.1565C10.7881 10.9388 10.6117 10.7628 10.3943 10.7628H9.40993V9.71275H18.1383C18.428 9.71275 18.6633 9.47742 18.6633 9.18775V2.7563C18.6634 2.46637 18.428 2.2313 18.1383 2.2313Z" fill="#2B51BE"/>
</svg>
