<svg width="21" height="21" viewBox="0 0 21 21" fill="none" xmlns="http://www.w3.org/2000/svg">
<g clip-path="url(#clip0)">
<path d="M19.2201 2.2004C16.9185 -0.0516053 13.239 -0.0511155 10.938 2.20151L1.28727 11.8523C-0.457769 13.6384 -0.424419 16.501 1.36176 18.2461C3.11856 19.9624 5.92428 19.9624 7.68107 18.2461L16.4199 9.5072C17.556 8.37113 17.556 6.52916 16.4199 5.39309C15.2839 4.25703 13.4419 4.25703 12.3058 5.39309L3.94691 13.752C3.65535 14.0539 3.66372 14.5349 3.96561 14.8265C4.2601 15.1109 4.72695 15.1109 5.02144 14.8265L13.3803 6.46758C13.9346 5.93657 14.8144 5.95549 15.3454 6.50979C15.8603 7.04735 15.8603 7.89515 15.3454 8.43271L6.60659 17.1715C5.42604 18.3353 3.52556 18.3217 2.3618 17.1411C1.2098 15.9725 1.2098 14.0954 2.3618 12.9267L12.0125 3.276C13.7315 1.55634 16.5191 1.55585 18.2388 3.27484C19.9584 4.99383 19.9589 7.78144 18.2399 9.50109L8.58917 19.1518C8.27041 19.4248 8.23328 19.9045 8.50626 20.2233C8.77925 20.5421 9.25896 20.5792 9.57772 20.3062C9.60746 20.2807 9.63516 20.253 9.66063 20.2233L19.3114 10.5726C21.5981 8.23546 21.5572 4.48709 19.2201 2.2004Z" fill="#1D3783"/>
</g>
<defs>
<clipPath id="clip0">
<rect width="21" height="21" fill="white"/>
</clipPath>
</defs>
</svg>
