<svg width="18" height="18" viewBox="0 0 18 18" fill="none" xmlns="http://www.w3.org/2000/svg">
<path d="M13.7476 1.65674V13.7072L17.8888 2.8967C17.9668 2.69318 17.8427 2.46846 17.6289 2.4261L13.7476 1.65674Z" fill="white"/>
<path d="M12.3412 0H0.44043C0.246367 0 0.0888672 0.1575 0.0888672 0.351562V17.6484C0.0888672 17.8425 0.246367 18 0.44043 18H12.3412C12.5352 18 12.6927 17.8425 12.6927 17.6484V0.351562C12.6927 0.1575 12.5352 0 12.3412 0ZM10.4132 15.6154H2.36805C2.07695 15.6154 1.8407 15.3791 1.8407 15.088C1.8407 14.7969 2.07695 14.5607 2.36805 14.5607H10.4132C10.7043 14.5607 10.9405 14.7969 10.9405 15.088C10.9405 15.3791 10.7043 15.6154 10.4132 15.6154ZM6.39133 11.7411H6.38992C3.81367 11.7411 1.71238 9.65602 1.71238 7.06289C1.71238 4.47047 3.81262 2.38465 6.38992 2.38465H6.39133C8.97074 2.385 11.0689 4.48383 11.0689 7.06289C11.0689 9.6423 8.97074 11.7408 6.39133 11.7411Z" fill="white"/>
<path d="M5.1624 3.65283C3.89045 4.10916 2.99537 5.21939 2.80518 6.53564H4.45963C4.5208 5.43349 4.77182 4.42592 5.1624 3.65283Z" fill="white"/>
<path d="M9.97592 6.5357C9.78046 5.20152 8.8555 4.10148 7.62012 3.6543C8.01035 4.42773 8.26101 5.43461 8.32183 6.5357H9.97592Z" fill="white"/>
<path d="M5.16205 10.4731C4.77111 9.69971 4.52045 8.69213 4.45963 7.59033H2.80518C2.99537 8.90658 3.89045 10.0168 5.16205 10.4731Z" fill="white"/>
<path d="M9.97592 7.59033H8.32183C8.26101 8.69143 8.01035 9.6983 7.62012 10.4717C8.8555 10.0245 9.78046 8.92451 9.97592 7.59033Z" fill="white"/>
<path d="M7.26641 7.59033C7.08127 7.59033 5.70111 7.59033 5.51562 7.59033C5.59648 8.91045 5.97336 9.911 6.39102 10.4637C6.80867 9.911 7.18555 8.91045 7.26641 7.59033Z" fill="white"/>
<path d="M7.26557 6.53556C7.18471 5.21545 6.80783 4.21525 6.39018 3.6626C5.97287 4.2149 5.596 5.21545 5.51514 6.53556H7.26557Z" fill="white"/>
</svg>
