<svg width="24" height="17" viewBox="0 0 24 17" fill="none" xmlns="http://www.w3.org/2000/svg">
<path d="M4.19257 0.134036C4.95317 0.134036 5.61347 0.259409 6.17347 0.510156C6.74183 0.760902 7.17646 1.1203 7.47735 1.58836C7.77825 2.05642 7.92869 2.61225 7.92869 3.25583C7.92869 3.89105 7.77825 4.44687 7.47735 4.92329C7.17646 5.39135 6.74183 5.75075 6.17347 6.0015C5.61347 6.25225 4.95317 6.37762 4.19257 6.37762H2.21168V8.91016H0.581828V0.134036H4.19257ZM4.11735 4.99851C4.8278 4.99851 5.3669 4.84807 5.73466 4.54717C6.10242 4.24628 6.28631 3.81583 6.28631 3.25583C6.28631 2.69583 6.10242 2.26538 5.73466 1.96448C5.3669 1.66359 4.8278 1.51314 4.11735 1.51314H2.21168V4.99851H4.11735ZM11.9022 2.14001C12.8885 2.14001 13.6407 2.37822 14.159 2.85463C14.6855 3.32269 14.9488 4.03314 14.9488 4.98598V8.91016H13.4694V8.09523C13.2772 8.38777 13.0013 8.61344 12.6419 8.77225C12.2909 8.92269 11.8646 8.99792 11.3631 8.99792C10.8616 8.99792 10.4228 8.91434 10.0467 8.74717C9.6706 8.57165 9.37806 8.33344 9.1691 8.03254C8.96851 7.72329 8.86821 7.37642 8.86821 6.99195C8.86821 6.39016 9.0897 5.90956 9.53269 5.55016C9.98403 5.18239 10.6903 4.99851 11.6515 4.99851H13.3816V4.89822C13.3816 4.43016 13.2396 4.07075 12.9554 3.82001C12.6796 3.56926 12.2658 3.44389 11.7142 3.44389C11.3381 3.44389 10.9661 3.50239 10.5984 3.61941C10.239 3.73642 9.93388 3.89941 9.68313 4.10836L9.06881 2.96747C9.41985 2.70001 9.84194 2.49523 10.3351 2.35314C10.8282 2.21105 11.3506 2.14001 11.9022 2.14001ZM11.6891 7.85702C12.0819 7.85702 12.4288 7.76926 12.7297 7.59374C13.039 7.40986 13.2563 7.15075 13.3816 6.81642V6.03911H11.7643C10.8616 6.03911 10.4103 6.33583 10.4103 6.92926C10.4103 7.21344 10.5231 7.43911 10.7488 7.60628C10.9745 7.77344 11.2879 7.85702 11.6891 7.85702ZM23.1063 2.21523L19.972 9.44926C19.6794 10.1764 19.3242 10.6863 18.9063 10.9788C18.4884 11.2797 17.9827 11.4302 17.3893 11.4302C17.0549 11.4302 16.7248 11.3758 16.3988 11.2672C16.0729 11.1585 15.8054 11.0081 15.5964 10.8158L16.2233 9.6624C16.3737 9.80448 16.5493 9.91732 16.7499 10.0009C16.9588 10.0845 17.1678 10.1263 17.3767 10.1263C17.6526 10.1263 17.8782 10.0552 18.0537 9.91314C18.2376 9.77105 18.4048 9.53284 18.5552 9.19851L18.6681 8.93523L15.7469 2.21523H17.3767L19.483 7.16747L21.6018 2.21523H23.1063ZM6.51198 11.8325C7.14511 11.8325 7.6466 12.0175 8.01646 12.3873C8.38631 12.7509 8.57123 13.2994 8.57123 14.0328V16.9102H7.39586V14.1833C7.39586 13.7445 7.29869 13.4154 7.10437 13.196C6.91004 12.9703 6.63108 12.8575 6.2675 12.8575C5.87257 12.8575 5.55601 12.9891 5.3178 13.2524C5.07959 13.5094 4.96048 13.8793 4.96048 14.3619V16.9102H3.78511V14.1833C3.78511 13.7445 3.68795 13.4154 3.49362 13.196C3.29929 12.9703 3.02034 12.8575 2.65675 12.8575C2.25556 12.8575 1.93586 12.986 1.69765 13.243C1.46571 13.5 1.34974 13.873 1.34974 14.3619V16.9102H0.174365V11.889H1.29332V12.5284C1.48138 12.3027 1.71645 12.1303 1.99854 12.0112C2.28063 11.8921 2.59407 11.8325 2.93884 11.8325C3.31496 11.8325 3.6472 11.9046 3.93556 12.0488C4.23019 12.1867 4.46213 12.3936 4.63138 12.6694C4.83825 12.4061 5.10466 12.2024 5.43063 12.0582C5.7566 11.9078 6.11705 11.8325 6.51198 11.8325ZM14.8394 14.4278C14.8394 14.5093 14.8332 14.6252 14.8206 14.7757H10.8808C10.9497 15.1455 11.1284 15.4402 11.4167 15.6596C11.7114 15.8727 12.0749 15.9793 12.5075 15.9793C13.0591 15.9793 13.5136 15.7975 13.8709 15.4339L14.5009 16.1579C14.2752 16.4275 13.99 16.6312 13.6452 16.7691C13.3005 16.907 12.9118 16.976 12.4793 16.976C11.9276 16.976 11.4418 16.8663 11.0218 16.6469C10.6018 16.4275 10.2758 16.1234 10.0439 15.7348C9.81823 15.3399 9.70539 14.8948 9.70539 14.3996C9.70539 13.9106 9.81509 13.4718 10.0345 13.0831C10.2602 12.6882 10.5705 12.3811 10.9654 12.1616C11.3603 11.9422 11.8054 11.8325 12.3006 11.8325C12.7896 11.8325 13.2252 11.9422 13.6076 12.1616C13.9963 12.3748 14.2972 12.6788 14.5103 13.0737C14.7297 13.4624 14.8394 13.9137 14.8394 14.4278ZM12.3006 12.7728C11.9245 12.7728 11.6048 12.8857 11.3415 13.1113C11.0845 13.3308 10.9278 13.6254 10.8714 13.9952H13.7205C13.6703 13.6316 13.5167 13.337 13.2597 13.1113C13.0027 12.8857 12.683 12.7728 12.3006 12.7728Z" fill="white"/>
</svg>
