<svg width="18" height="18" viewBox="0 0 18 18" fill="none" xmlns="http://www.w3.org/2000/svg">
<g clip-path="url(#clip0)">
<path d="M7.45265 10.5466C5.73458 8.8285 5.34665 7.11043 5.25914 6.42208C5.23468 6.23176 5.30018 6.04088 5.43634 5.90567L6.82669 4.51595C7.03121 4.31155 7.0675 3.99301 6.9142 3.74784L4.70051 0.310464C4.53092 0.0389898 4.18268 -0.0589881 3.89641 0.0842229L0.342652 1.75791C0.111153 1.8719 -0.0250112 2.11787 0.00127291 2.37457C0.18748 4.14353 0.958686 8.49208 5.23214 12.7658C9.50558 17.0396 13.8535 17.8105 15.6234 17.9967C15.8801 18.023 16.1261 17.8868 16.2401 17.6553L17.9138 14.1016C18.0564 13.8159 17.9591 13.4686 17.6888 13.2987L14.2514 11.0856C14.0064 10.9322 13.6878 10.9682 13.4833 11.1725L12.0935 12.5629C11.9583 12.699 11.7675 12.7645 11.5771 12.7401C10.8888 12.6526 9.17072 12.2646 7.45265 10.5466Z" fill="#1D3783"/>
<path d="M14.2755 9.62076C13.9327 9.62076 13.6548 9.34286 13.6548 9.00007C13.6519 6.43029 11.5694 4.3478 8.9996 4.34489C8.6568 4.34489 8.37891 4.067 8.37891 3.72421C8.37891 3.38141 8.6568 3.10352 8.9996 3.10352C12.2547 3.10711 14.8926 5.74498 14.8961 9.00007C14.8961 9.34286 14.6183 9.62076 14.2755 9.62076Z" fill="#1D3783"/>
<path d="M17.3789 9.62069C17.0361 9.62069 16.7582 9.3428 16.7582 9C16.7534 4.71702 13.2826 1.24617 8.9996 1.24138C8.6568 1.24138 8.37891 0.963487 8.37891 0.62069C8.37891 0.277892 8.6568 0 8.9996 0C13.9679 0.0054732 17.9941 4.03171 17.9996 9C17.9996 9.16462 17.9342 9.32249 17.8178 9.4389C17.7014 9.5553 17.5435 9.62069 17.3789 9.62069Z" fill="#1D3783"/>
</g>
<defs>
<clipPath id="clip0">
<rect width="18" height="18" fill="white"/>
</clipPath>
</defs>
</svg>
