<svg width="16" height="16" viewBox="0 0 16 16" fill="none" xmlns="http://www.w3.org/2000/svg">
<g clip-path="url(#clip0)">
<path d="M12.4454 7.37568L5.32522 0.255608C5.16054 0.090796 4.9407 0 4.7063 0C4.47189 0 4.25206 0.090796 4.08738 0.255608L3.56302 0.779831C3.22182 1.12142 3.22182 1.6766 3.56302 2.01767L9.54203 7.99668L3.55639 13.9823C3.39171 14.1471 3.30078 14.3668 3.30078 14.6011C3.30078 14.8357 3.39171 15.0554 3.55639 15.2203L4.08074 15.7444C4.24555 15.9092 4.46526 16 4.69966 16C4.93407 16 5.1539 15.9092 5.31859 15.7444L12.4454 8.61782C12.6105 8.45248 12.7012 8.23174 12.7006 7.99707C12.7012 7.7615 12.6105 7.54088 12.4454 7.37568Z" fill="#5085F9"/>
</g>
<defs>
<clipPath id="clip0">
<rect width="16" height="16" fill="white"/>
</clipPath>
</defs>
</svg>
