<svg width="16" height="16" viewBox="0 0 16 16" fill="none" xmlns="http://www.w3.org/2000/svg">
<g clip-path="url(#clip0)">
<path d="M3.55458 8.62432L10.6748 15.7444C10.8395 15.9092 11.0593 16 11.2937 16C11.5281 16 11.7479 15.9092 11.9126 15.7444L12.437 15.2202C12.7782 14.8786 12.7782 14.3234 12.437 13.9823L6.45797 8.00332L12.4436 2.01768C12.6083 1.85286 12.6992 1.63316 12.6992 1.39888C12.6992 1.16435 12.6083 0.944643 12.4436 0.779701L11.9193 0.255608C11.7544 0.0907964 11.5347 8.51872e-07 11.3003 8.3138e-07C11.0659 8.10888e-07 10.8461 0.0907963 10.6814 0.255607L3.55458 7.38218C3.38951 7.54752 3.29884 7.76826 3.29936 8.00293C3.29884 8.2385 3.38951 8.45912 3.55458 8.62432Z" fill="#5085F9"/>
</g>
<defs>
<clipPath id="clip0">
<rect width="16" height="16" fill="white" transform="translate(16 16) rotate(-180)"/>
</clipPath>
</defs>
</svg>
