<svg width="16" height="15" viewBox="0 0 16 15" fill="none" xmlns="http://www.w3.org/2000/svg">
<g clip-path="url(#clip0)">
<path d="M15.3007 13.6626L11.7307 9.94962C12.6486 8.85844 13.1516 7.48552 13.1516 6.05624C13.1516 2.71688 10.4347 0 7.09531 0C3.75595 0 1.03906 2.71688 1.03906 6.05624C1.03906 9.3956 3.75595 12.1125 7.09531 12.1125C8.34895 12.1125 9.54361 11.7344 10.565 11.0166L14.1622 14.7578C14.3125 14.9139 14.5147 15 14.7314 15C14.9366 15 15.1312 14.9218 15.2789 14.7796C15.5927 14.4776 15.6027 13.9768 15.3007 13.6626ZM7.09531 1.57989C9.56362 1.57989 11.5717 3.58793 11.5717 6.05624C11.5717 8.52456 9.56362 10.5326 7.09531 10.5326C4.62699 10.5326 2.61895 8.52456 2.61895 6.05624C2.61895 3.58793 4.62699 1.57989 7.09531 1.57989Z" fill="white"/>
</g>
<defs>
<clipPath id="clip0">
<rect width="15" height="15" fill="white" transform="translate(0.779297)"/>
</clipPath>
</defs>
</svg>
