<svg width="13" height="7" viewBox="0 0 13 7" fill="none" xmlns="http://www.w3.org/2000/svg">
<path d="M6.84521 6.56549L11.8726 1.80638C11.989 1.69631 12.0555 1.54694 12.0599 1.38585C12.0644 1.22476 12.0061 1.07197 11.8959 0.955686L11.5456 0.585448C11.3172 0.344523 10.9357 0.33406 10.6949 0.562119L6.47315 4.55846L2.47237 0.332065C2.36221 0.215783 2.21293 0.149154 2.05193 0.144739C1.89075 0.140318 1.73804 0.198666 1.62159 0.308733L1.25152 0.659213C1.13515 0.769373 1.06861 0.918652 1.0642 1.07974C1.05978 1.24084 1.11803 1.39363 1.2282 1.50991L5.99156 6.54208C6.10207 6.65864 6.25207 6.72511 6.41335 6.72918C6.57524 6.73397 6.72856 6.67582 6.84521 6.56549Z" fill="#1D3783"/>
</svg>
