<svg width="25" height="25" viewBox="0 0 25 25" fill="none" xmlns="http://www.w3.org/2000/svg">
<g clip-path="url(#clip0)">
<path d="M19.8865 19.792H10.5177C9.16667 19.792 7.96875 18.9055 7.60313 17.6357L4.43646 6.90553C4.32396 6.51699 3.95 6.25033 3.52292 6.25033H1.04167C0.465625 6.25033 0 5.78366 0 5.20866C0 4.63366 0.465625 4.16699 1.04167 4.16699H3.52292C4.87396 4.16699 6.07083 5.05345 6.43646 6.32324L7.02917 8.33366H22.9615C23.6115 8.33366 24.2281 8.64303 24.6104 9.16178C24.9896 9.67637 25.099 10.3201 24.9104 10.9285L22.7615 17.7493C22.3406 18.9805 21.1875 19.792 19.8865 19.792ZM22.9625 10.417H22.9729H22.9625Z" fill="#1D3783"/>
<path d="M11.4583 24.9997C10.3094 24.9997 9.375 24.0653 9.375 22.9163C9.375 21.7674 10.3094 20.833 11.4583 20.833C12.6073 20.833 13.5417 21.7674 13.5417 22.9163C13.5417 24.0653 12.6073 24.9997 11.4583 24.9997ZM11.4583 22.9153V22.9163V22.9153Z" fill="#1D3783"/>
<path d="M18.7493 24.9997C17.6004 24.9997 16.666 24.0653 16.666 22.9163C16.666 21.7674 17.6004 20.833 18.7493 20.833C19.8983 20.833 20.8327 21.7674 20.8327 22.9163C20.8327 24.0653 19.8983 24.9997 18.7493 24.9997ZM18.7493 22.9153V22.9163V22.9153Z" fill="#1D3783"/>
</g>
<defs>
<clipPath id="clip0">
<rect width="25" height="25" fill="white"/>
</clipPath>
</defs>
</svg>
