<svg width="23" height="23" viewBox="0 0 23 23" fill="none" xmlns="http://www.w3.org/2000/svg">
<g clip-path="url(#clip0)">
<path d="M21.5299 11.0525C21.4577 11.0374 21.3895 11.0231 21.3289 11.0073C20.6416 10.8286 20.3279 10.7307 20.096 10.2829L19.2174 8.50422C18.9351 7.95916 18.206 7.51569 17.5922 7.51569H16.0282V5.4618C16.0282 5.09302 15.7281 4.79297 15.3592 4.79297L4.46547 4.80391C4.10654 4.80391 3.83587 5.08914 3.83587 5.46742V6.07449H1.04517C0.468879 6.07454 0 6.54337 0 7.11971C0 7.69605 0.468879 8.16488 1.04517 8.16488H3.83582V9.16664H2.00869C1.4324 9.16664 0.963517 9.63552 0.963517 10.2118C0.963517 10.7881 1.4324 11.257 2.00869 11.257H3.83582V12.2587H2.9722C2.39591 12.2587 1.92703 12.7276 1.92703 13.3039C1.92703 13.8802 2.39591 14.3491 2.9722 14.3491H3.83582V15.3968C3.83582 15.7656 4.13587 16.0657 4.50465 16.0657H5.63784C5.81432 17.2752 6.85825 18.2071 8.1161 18.2071C9.37406 18.2071 10.418 17.2752 10.5946 16.0657H15.1806C15.2044 16.0657 15.2289 16.0641 15.2532 16.0625C15.4284 17.2735 16.4729 18.2071 17.7319 18.2071C18.9898 18.2071 20.0338 17.2752 20.2103 16.0657H21.838C22.4788 16.0657 23 15.5444 23 14.9037V12.9321C23 11.361 22.1152 11.1754 21.5299 11.0525ZM17.7319 14.7919C18.2341 14.7919 18.6427 15.2004 18.6427 15.7025C18.6427 16.2046 18.2341 16.6131 17.7319 16.6131C17.2298 16.6131 16.8214 16.2046 16.8214 15.7025C16.8214 15.2004 17.2298 14.7919 17.7319 14.7919ZM16.0282 10.9109V8.48572H17.2234C17.6828 8.48572 18.2495 8.83043 18.4598 9.23631L19.2416 10.8191C19.2582 10.8511 19.2754 10.8816 19.2932 10.9109H16.0282V10.9109ZM9.02696 15.7025C9.02696 16.2045 8.61835 16.613 8.1161 16.613C7.61406 16.613 7.20564 16.2046 7.20564 15.7025C7.20564 15.2004 7.61406 14.7919 8.1161 14.7919C8.61835 14.792 9.02696 15.2004 9.02696 15.7025Z" fill="#1D3783"/>
</g>
<defs>
<clipPath id="clip0">
<rect width="23" height="23" fill="white"/>
</clipPath>
</defs>
</svg>
