<svg width="14" height="14" viewBox="0 0 14 14" fill="none" xmlns="http://www.w3.org/2000/svg">
<g clip-path="url(#clip0)">
<path d="M6.90035 6.74384C7.82683 6.74384 8.62909 6.41155 9.28459 5.75594C9.94009 5.10044 10.2724 4.2984 10.2724 3.37181C10.2724 2.44555 9.94009 1.6434 9.28448 0.987682C8.62887 0.332289 7.82672 0 6.90035 0C5.97376 0 5.17172 0.332289 4.51622 0.987789C3.86072 1.64329 3.52832 2.44544 3.52832 3.37181C3.52832 4.2984 3.86072 5.10055 4.51632 5.75605C5.17193 6.41144 5.97408 6.74384 6.90035 6.74384Z" fill="#1D3783"/>
<path d="M12.8004 10.7654C12.7814 10.4926 12.7432 10.1951 12.6869 9.88083C12.6301 9.56424 12.5569 9.26496 12.4693 8.99142C12.3789 8.70869 12.2558 8.42948 12.1037 8.16192C11.9459 7.88421 11.7604 7.64239 11.5524 7.4434C11.3348 7.23523 11.0684 7.06785 10.7604 6.94577C10.4534 6.82433 10.1132 6.7628 9.74929 6.7628C9.60638 6.7628 9.46817 6.82144 9.20125 6.99522C9.03697 7.10235 8.84482 7.22626 8.63034 7.36329C8.44695 7.48015 8.1985 7.58963 7.89164 7.68875C7.59224 7.78563 7.28826 7.83476 6.98823 7.83476C6.6882 7.83476 6.38432 7.78563 6.08461 7.68875C5.77806 7.58973 5.52962 7.48025 5.34643 7.3634C5.13399 7.22764 4.94173 7.10374 4.77499 6.99512C4.50839 6.82133 4.37007 6.7627 4.22716 6.7627C3.86315 6.7627 3.52306 6.82433 3.21619 6.94588C2.90836 7.06775 2.64187 7.23512 2.42408 7.44351C2.21612 7.64261 2.03059 7.88432 1.87294 8.16192C1.72095 8.42948 1.5979 8.70858 1.50732 8.99152C1.41984 9.26507 1.34668 9.56424 1.28986 9.88083C1.23357 10.1946 1.19533 10.4923 1.17642 10.7658C1.15784 11.0336 1.14844 11.3117 1.14844 11.5925C1.14844 12.3233 1.38075 12.9149 1.83886 13.3512C2.29132 13.7818 2.88999 14.0002 3.61802 14.0002H10.3591C11.0871 14.0002 11.6856 13.7819 12.1381 13.3512C12.5963 12.9152 12.8287 12.3235 12.8287 11.5924C12.8286 11.3103 12.819 11.032 12.8004 10.7654Z" fill="#1D3783"/>
</g>
<defs>
<clipPath id="clip0">
<rect width="13.9999" height="14" fill="white"/>
</clipPath>
</defs>
</svg>
