<svg width="20" height="20" viewBox="0 0 20 20" fill="none" xmlns="http://www.w3.org/2000/svg">
<g clip-path="url(#clip0)">
<path d="M18.5299 14.1592V15.0052C18.5299 16.2455 17.5208 17.2547 16.2804 17.2547H4.18469C2.94429 17.2547 1.93518 16.2456 1.93518 15.0052V13.9316C1.19145 14.4428 0.791992 15.0665 0.791992 15.7422C0.791992 16.6562 1.52227 17.4755 2.8483 18.0491C4.02704 18.559 5.58211 18.8398 7.22705 18.8398C7.96924 18.8398 8.69369 18.783 9.38355 18.6708C10.5018 19.1611 11.9276 19.4299 13.4224 19.4299C15.0263 19.4299 16.5428 19.1225 17.6927 18.5643C18.9698 17.9444 19.6731 17.0731 19.6731 16.111C19.6731 15.3858 19.2734 14.7124 18.5299 14.1592Z" fill="#5085F9"/>
<path d="M11.5234 9.54663C11.5234 9.85154 11.7715 10.0996 12.0764 10.0996H13.2045C13.2379 9.92018 13.2561 9.73556 13.2561 9.54663C13.2561 9.3577 13.2378 9.17304 13.2045 8.99365H12.0764C11.7715 8.99362 11.5234 9.24168 11.5234 9.54663Z" fill="#5085F9"/>
<path d="M7.72458 0.51123H4.18425C3.55385 0.51123 3.04102 1.0241 3.04102 1.65446V2.94572H7.72458V0.51123Z" fill="#5085F9"/>
<path d="M10.2325 12.5695C11.2872 12.5695 12.217 12.0262 12.7582 11.2052H12.0761C11.1612 11.2052 10.4168 10.4609 10.4168 9.54596C10.4168 8.63105 11.1612 7.88672 12.0761 7.88672H12.7582C12.217 7.06569 11.2872 6.52246 10.2325 6.52246C8.56532 6.52246 7.20898 7.87879 7.20898 9.54596C7.20898 11.2131 8.56532 12.5695 10.2325 12.5695Z" fill="#5085F9"/>
<path d="M17.4244 1.65442C17.4244 1.02408 16.9116 0.51123 16.2812 0.51123H8.83203V2.94564H17.4244V1.65442Z" fill="#5085F9"/>
<path d="M4.18421 16.147H16.2799C16.9103 16.147 17.4231 15.6342 17.4231 15.0038V4.05078H3.04102V15.0039C3.04102 15.6342 3.55387 16.147 4.18421 16.147ZM10.2321 5.41523C12.0566 5.41523 13.6084 6.60456 14.1535 8.24858C14.1585 8.26222 14.1631 8.27605 14.167 8.29021C14.2937 8.68627 14.3623 9.108 14.3623 9.54551C14.3623 9.98302 14.2936 10.4048 14.167 10.8008C14.163 10.8149 14.1585 10.8287 14.1535 10.8423C13.6084 12.4863 12.0566 13.6757 10.232 13.6757C7.9546 13.6757 6.10178 11.8229 6.10178 9.54547C6.10182 7.26805 7.95463 5.41523 10.2321 5.41523Z" fill="#5085F9"/>
</g>
<defs>
<clipPath id="clip0">
<rect width="18.9185" height="18.9185" fill="white" transform="translate(0.773438 0.51123)"/>
</clipPath>
</defs>
</svg>
