<svg width="20" height="20" viewBox="0 0 20 20" fill="none" xmlns="http://www.w3.org/2000/svg">
<g clip-path="url(#clip0)">
<path d="M1.66602 19.1667C1.66602 19.3877 1.75381 19.5996 1.91009 19.7559C2.06637 19.9122 2.27834 20 2.49935 20H17.4993C17.7204 20 17.9323 19.9122 18.0886 19.7559C18.2449 19.5996 18.3327 19.3877 18.3327 19.1667V17.5H1.66602V19.1667Z" fill="#2B51BE"/>
<path d="M17.4993 0H2.49935C2.27834 0 2.06637 0.0877974 1.91009 0.244078C1.75381 0.400358 1.66602 0.61232 1.66602 0.833333V16.6667H18.3327V0.833333C18.3327 0.61232 18.2449 0.400358 18.0886 0.244078C17.9323 0.0877974 17.7204 0 17.4993 0V0ZM8.33268 1.66667C8.4975 1.66667 8.65862 1.71554 8.79566 1.80711C8.9327 1.89868 9.03951 2.02883 9.10258 2.1811C9.16566 2.33337 9.18216 2.50092 9.15 2.66258C9.11785 2.82423 9.03848 2.97271 8.92194 3.08926C8.80539 3.2058 8.65691 3.28517 8.49526 3.31732C8.33361 3.34948 8.16605 3.33297 8.01378 3.2699C7.86151 3.20683 7.73136 3.10002 7.63979 2.96298C7.54822 2.82593 7.49935 2.66482 7.49935 2.5C7.49935 2.27899 7.58715 2.06702 7.74343 1.91074C7.89971 1.75446 8.11167 1.66667 8.33268 1.66667ZM4.16602 2.5C4.16602 2.33518 4.21489 2.17407 4.30646 2.03702C4.39803 1.89998 4.52817 1.79317 4.68045 1.7301C4.83272 1.66703 5.00027 1.65052 5.16192 1.68268C5.32358 1.71483 5.47206 1.7942 5.5886 1.91074C5.70515 2.02729 5.78452 2.17577 5.81667 2.33742C5.84882 2.49908 5.83232 2.66663 5.76925 2.8189C5.70618 2.97117 5.59937 3.10132 5.46232 3.19289C5.32528 3.28446 5.16417 3.33333 4.99935 3.33333C4.77834 3.33333 4.56637 3.24554 4.41009 3.08926C4.25381 2.93298 4.16602 2.72101 4.16602 2.5ZM9.99935 15C9.01044 15 8.04374 14.7068 7.2215 14.1573C6.39925 13.6079 5.75839 12.827 5.37995 11.9134C5.00151 10.9998 4.9025 9.99445 5.09542 9.02455C5.28835 8.05464 5.76455 7.16373 6.46382 6.46447C7.16308 5.7652 8.05399 5.289 9.0239 5.09607C9.9938 4.90315 10.9991 5.00216 11.9128 5.3806C12.8264 5.75904 13.6073 6.3999 14.1567 7.22215C14.7061 8.04439 14.9993 9.01109 14.9993 10C14.9979 11.3256 14.4706 12.5965 13.5332 13.5339C12.5959 14.4712 11.325 14.9985 9.99935 15ZM15.8327 3.33333H12.4993V1.66667H15.8327V3.33333Z" fill="#2B51BE"/>
<path d="M12.6657 8.00251C12.2463 7.44229 11.6611 7.02831 10.9932 6.81923C10.3254 6.61014 9.60862 6.61658 8.9446 6.83762C8.28058 7.05865 7.70298 7.48308 7.29365 8.05073C6.88433 8.61839 6.66406 9.30048 6.66406 10.0003C6.66406 10.7002 6.88433 11.3822 7.29365 11.9499C7.70298 12.5176 8.28058 12.942 8.9446 13.163C9.60862 13.3841 10.3254 13.3905 10.9932 13.1814C11.6611 12.9723 12.2463 12.5583 12.6657 11.9981C12.3553 11.7657 12.1033 11.4641 11.9298 11.1173C11.7562 10.7706 11.6658 10.3881 11.6658 10.0003C11.6658 9.61253 11.7562 9.23008 11.9298 8.8833C12.1033 8.53652 12.3553 8.23495 12.6657 8.00251Z" fill="#2B51BE"/>
</g>
<defs>
<clipPath id="clip0">
<rect width="20" height="20" fill="white"/>
</clipPath>
</defs>
</svg>
