<svg width="19" height="19" viewBox="0 0 19 19" fill="none" xmlns="http://www.w3.org/2000/svg">
<path d="M4.44027 3.8527L12.0147 1.78521L11.6135 0.974427C11.3511 0.44742 10.711 0.229789 10.184 0.492226L3.40332 3.8527H4.44027Z" fill="white"/>
<path d="M14.3661 1.84473C14.2722 1.84473 14.1783 1.85753 14.0844 1.88313L12.305 2.3696L6.87061 3.85247H13.0389H15.7273L15.3945 2.63204C15.2665 2.15624 14.8355 1.84473 14.3661 1.84473Z" fill="white"/>
<path d="M16.8386 4.59961H16.5954H16.2647H15.934H13.4099H4.13498H2.91881H1.89467H1.70477H1.06895C0.731836 4.59961 0.430994 4.75536 0.2347 5.00073C0.145087 5.11382 0.0768108 5.24397 0.0384054 5.38692C0.0149354 5.47653 0 5.57041 0 5.66643V5.79444V7.01061V17.5529C0 18.1418 0.477934 18.6197 1.06682 18.6197H16.8365C17.4254 18.6197 17.9033 18.1418 17.9033 17.5529V14.5765H11.5728C10.5722 14.5765 9.75924 13.7636 9.75924 12.7629V11.7857V11.455V11.1243V10.3903C9.75924 9.89955 9.95551 9.45365 10.2734 9.1272C10.5551 8.837 10.9327 8.64071 11.3552 8.59164C11.4256 8.58312 11.4981 8.57884 11.5707 8.57884H17.0157H17.3464H17.6771H17.9033V5.66643C17.9054 5.07754 17.4275 4.59961 16.8386 4.59961Z" fill="white"/>
<path d="M18.6521 9.59882C18.5454 9.50067 18.4195 9.426 18.2787 9.37692C18.1698 9.34067 18.0546 9.31934 17.933 9.31934H17.9053H17.8839H17.5532H16.3605H11.5727C10.9838 9.31934 10.5059 9.79725 10.5059 10.3862V10.9174V11.2481V11.5788V12.7609C10.5059 13.3497 10.9838 13.8277 11.5727 13.8277H17.9053H17.933C18.0546 13.8277 18.1699 13.8063 18.2787 13.7701C18.4195 13.7231 18.5454 13.6463 18.6521 13.5482C18.8654 13.354 18.9998 13.0724 18.9998 12.7609V10.3862C18.9998 10.0746 18.8654 9.79296 18.6521 9.59882ZM13.8002 11.7858C13.8002 12.0802 13.5612 12.3192 13.2668 12.3192H12.9126C12.6182 12.3192 12.3792 12.0802 12.3792 11.7858V11.4316C12.3792 11.2609 12.4581 11.1094 12.584 11.0134C12.6758 10.943 12.7889 10.8982 12.9126 10.8982H13.0022H13.2668C13.5612 10.8982 13.8002 11.1371 13.8002 11.4316V11.7858Z" fill="white"/>
</svg>
